<mxfile host="app.diagrams.net" modified="2023-08-07T02:56:40.242Z" agent="Mozilla/5.0 (Windows NT 10.0; Win64; x64) AppleWebKit/537.36 (KHTML, like Gecko) Chrome/115.0.0.0 Safari/537.36" version="21.6.6" etag="nneSZ0SwBRcCqwSjg8Iu" type="github">
  <diagram name="Trang-1" id="7ifttBGKkHT4g9YUg0jI">
    <mxGraphModel>
      <root>
        <mxCell id="0" />
        <mxCell id="1" parent="0" />
      </root>
    </mxGraphModel>
  </diagram>
</mxfile>
